<svg width="22" height="24" viewBox="0 0 22 24" fill="none" xmlns="http://www.w3.org/2000/svg">
<path d="M19.8448 19.8746C18.5359 17.4062 16.519 15.6362 14.1652 14.7971C15.3295 14.041 16.2341 12.8888 16.74 11.5176C17.246 10.1463 17.3253 8.63175 16.9659 7.20652C16.6065 5.78129 15.8281 4.52418 14.7504 3.62824C13.6726 2.7323 12.3551 2.24707 11.0001 2.24707C9.64508 2.24707 8.32754 2.7323 7.24979 3.62824C6.17204 4.52418 5.39369 5.78129 5.03425 7.20652C4.67481 8.63175 4.75417 10.1463 5.26013 11.5176C5.7661 12.8888 6.67069 14.041 7.835 14.7971C5.48117 15.6352 3.46422 17.4052 2.15539 19.8746C2.1074 19.96 2.07556 20.055 2.06176 20.154C2.04797 20.253 2.05249 20.3541 2.07506 20.4511C2.09764 20.5482 2.1378 20.6394 2.1932 20.7192C2.24859 20.7991 2.31809 20.8661 2.39759 20.9162C2.47708 20.9663 2.56497 20.9985 2.65607 21.0109C2.74717 21.0234 2.83963 21.0158 2.92799 20.9886C3.01635 20.9614 3.09883 20.9152 3.17056 20.8527C3.24229 20.7902 3.30182 20.7126 3.34563 20.6246C4.96469 17.5721 7.82641 15.7496 11.0001 15.7496C14.1738 15.7496 17.0355 17.5721 18.6545 20.6246C18.6983 20.7126 18.7579 20.7902 18.8296 20.8527C18.9013 20.9152 18.9838 20.9614 19.0722 20.9886C19.1605 21.0158 19.253 21.0234 19.3441 21.0109C19.4352 20.9985 19.5231 20.9663 19.6026 20.9162C19.6821 20.8661 19.7516 20.7991 19.807 20.7192C19.8624 20.6394 19.9025 20.5482 19.9251 20.4511C19.9477 20.3541 19.9522 20.253 19.9384 20.154C19.9246 20.055 19.8928 19.96 19.8448 19.8746ZM6.18758 8.99962C6.18758 7.96127 6.46983 6.94624 6.99863 6.08288C7.52744 5.21952 8.27905 4.54661 9.15842 4.14925C10.0378 3.75189 11.0054 3.64793 11.939 3.8505C12.8725 4.05307 13.73 4.55308 14.403 5.28731C15.0761 6.02154 15.5344 6.957 15.7201 7.9754C15.9058 8.9938 15.8105 10.0494 15.4462 11.0087C15.082 11.968 14.4652 12.788 13.6738 13.3648C12.8823 13.9417 11.9519 14.2496 11.0001 14.2496C9.72414 14.2481 8.50086 13.6945 7.59864 12.7103C6.69641 11.726 6.18894 10.3916 6.18758 8.99962Z" fill="#333333"/>
</svg>
