<svg width="24" height="24" viewBox="0 0 24 24" fill="none" xmlns="http://www.w3.org/2000/svg">
<path d="M21.75 9C21.7504 8.93027 21.7409 8.86083 21.7219 8.79375L20.3766 4.0875C20.2861 3.77523 20.0971 3.50059 19.8378 3.30459C19.5784 3.10858 19.2626 3.00174 18.9375 3H5.0625C4.73741 3.00174 4.4216 3.10858 4.16223 3.30459C3.90287 3.50059 3.71386 3.77523 3.62344 4.0875L2.27906 8.79375C2.2597 8.86079 2.24991 8.93022 2.25 9V10.5C2.25 11.0822 2.38554 11.6563 2.6459 12.1771C2.90625 12.6978 3.28427 13.1507 3.75 13.5V20.25C3.75 20.4489 3.82902 20.6397 3.96967 20.7803C4.11032 20.921 4.30109 21 4.5 21H19.5C19.6989 21 19.8897 20.921 20.0303 20.7803C20.171 20.6397 20.25 20.4489 20.25 20.25V13.5C20.7157 13.1507 21.0937 12.6978 21.3541 12.1771C21.6145 11.6563 21.75 11.0822 21.75 10.5V9ZM5.0625 4.5H18.9375L20.0081 8.25H3.99469L5.0625 4.5ZM9.75 9.75H14.25V10.5C14.25 11.0967 14.0129 11.669 13.591 12.091C13.169 12.5129 12.5967 12.75 12 12.75C11.4033 12.75 10.831 12.5129 10.409 12.091C9.98705 11.669 9.75 11.0967 9.75 10.5V9.75ZM8.25 9.75V10.5C8.24987 10.8869 8.14996 11.2672 7.95993 11.6043C7.7699 11.9413 7.49617 12.2236 7.16518 12.424C6.83419 12.6244 6.45713 12.736 6.07041 12.7481C5.68369 12.7602 5.30038 12.6724 4.9575 12.4931C4.90533 12.4525 4.84794 12.4191 4.78688 12.3937C4.46913 12.1903 4.20764 11.9103 4.02646 11.5794C3.84527 11.2484 3.7502 10.8773 3.75 10.5V9.75H8.25ZM18.75 19.5H5.25V14.175C5.4969 14.2248 5.74813 14.2499 6 14.25C6.58217 14.25 7.15634 14.1145 7.67705 13.8541C8.19776 13.5937 8.6507 13.2157 9 12.75C9.3493 13.2157 9.80224 13.5937 10.3229 13.8541C10.8437 14.1145 11.4178 14.25 12 14.25C12.5822 14.25 13.1563 14.1145 13.6771 13.8541C14.1978 13.5937 14.6507 13.2157 15 12.75C15.3493 13.2157 15.8022 13.5937 16.3229 13.8541C16.8437 14.1145 17.4178 14.25 18 14.25C18.2519 14.2499 18.5031 14.2248 18.75 14.175V19.5ZM19.2122 12.3937C19.1519 12.4191 19.0952 12.4522 19.0434 12.4922C18.7006 12.6716 18.3173 12.7596 17.9305 12.7477C17.5437 12.7357 17.1666 12.6242 16.8355 12.424C16.5044 12.2237 16.2305 11.9414 16.0404 11.6044C15.8502 11.2673 15.7502 10.887 15.75 10.5V9.75H20.25V10.5C20.2497 10.8774 20.1545 11.2486 19.9731 11.5795C19.7918 11.9104 19.5301 12.1904 19.2122 12.3937Z" fill="#333333"/>
</svg>
