<svg width="24" height="24" viewBox="0 0 24 24" fill="none" xmlns="http://www.w3.org/2000/svg">
<path d="M11.9999 7.49998C11.1099 7.49998 10.2399 7.7639 9.49987 8.25837C8.75985 8.75284 8.18307 9.45564 7.84248 10.2779C7.50188 11.1002 7.41277 12.005 7.5864 12.8779C7.76003 13.7508 8.18862 14.5526 8.81795 15.182C9.44729 15.8113 10.2491 16.2399 11.122 16.4135C11.9949 16.5871 12.8997 16.498 13.722 16.1574C14.5443 15.8168 15.2471 15.2401 15.7415 14.5C16.236 13.76 16.4999 12.89 16.4999 12C16.4987 10.8069 16.0242 9.66302 15.1805 8.81937C14.3369 7.97573 13.193 7.50122 11.9999 7.49998ZM11.9999 15C11.4066 15 10.8266 14.824 10.3332 14.4944C9.83988 14.1647 9.45536 13.6962 9.2283 13.148C9.00123 12.5999 8.94182 11.9967 9.05758 11.4147C9.17333 10.8328 9.45906 10.2982 9.87861 9.87866C10.2982 9.4591 10.8327 9.17338 11.4147 9.05763C11.9966 8.94187 12.5998 9.00128 13.148 9.22834C13.6962 9.45541 14.1647 9.83992 14.4943 10.3333C14.824 10.8266 14.9999 11.4066 14.9999 12C14.9999 12.7956 14.6839 13.5587 14.1213 14.1213C13.5586 14.6839 12.7956 15 11.9999 15ZM22.3068 10.0509C22.2859 9.94531 22.2425 9.84543 22.1796 9.75807C22.1167 9.67072 22.0357 9.59793 21.9421 9.54467L19.1456 7.95092L19.1343 4.79904C19.134 4.6905 19.1101 4.58331 19.0643 4.4849C19.0185 4.38649 18.9518 4.29919 18.869 4.22904C17.8546 3.37095 16.6864 2.71336 15.4265 2.29123C15.3273 2.25765 15.2221 2.24522 15.1178 2.25475C15.0135 2.26428 14.9124 2.29555 14.8209 2.34654L11.9999 3.92342L9.17618 2.34373C9.08464 2.29245 8.98335 2.26094 8.87887 2.25125C8.77439 2.24156 8.66904 2.2539 8.56962 2.28748C7.3107 2.71269 6.14383 3.37279 5.13087 4.23279C5.04815 4.30284 4.9816 4.38999 4.9358 4.48823C4.89 4.58647 4.86603 4.69347 4.86556 4.80186L4.8515 7.95654L2.05493 9.55029C1.96137 9.60356 1.88038 9.67634 1.81745 9.7637C1.75452 9.85105 1.71114 9.95093 1.69025 10.0565C1.43431 11.3427 1.43431 12.6667 1.69025 13.9528C1.71114 14.0584 1.75452 14.1583 1.81745 14.2456C1.88038 14.333 1.96137 14.4058 2.05493 14.459L4.8515 16.0528L4.86275 19.2047C4.86309 19.3132 4.88699 19.4204 4.93279 19.5188C4.9786 19.6172 5.04522 19.7045 5.12806 19.7747C6.1425 20.6328 7.31071 21.2904 8.57056 21.7125C8.66977 21.7461 8.77492 21.7585 8.87923 21.749C8.98354 21.7394 9.08469 21.7082 9.17618 21.6572L11.9999 20.0765L14.8237 21.6562C14.9354 21.7185 15.0614 21.7508 15.1893 21.75C15.2712 21.75 15.3526 21.7367 15.4302 21.7106C16.689 21.286 17.8559 20.6265 18.869 19.7672C18.9517 19.6971 19.0183 19.61 19.0641 19.5117C19.1099 19.4135 19.1338 19.3065 19.1343 19.1981L19.1484 16.0434L21.9449 14.4497C22.0385 14.3964 22.1195 14.3236 22.1824 14.2363C22.2453 14.1489 22.2887 14.049 22.3096 13.9434C22.5641 12.6583 22.5632 11.3357 22.3068 10.0509ZM20.9006 13.3237L18.2221 14.8472C18.1048 14.9139 18.0076 15.0111 17.9409 15.1284C17.8865 15.2222 17.8293 15.3215 17.7712 15.4153C17.6968 15.5335 17.6571 15.6703 17.6568 15.81L17.6427 18.8334C16.9228 19.3988 16.1208 19.8509 15.2643 20.174L12.5624 18.6684C12.4503 18.6064 12.3241 18.5741 12.1959 18.5747H12.1781C12.0646 18.5747 11.9502 18.5747 11.8368 18.5747C11.7026 18.5713 11.57 18.6037 11.4524 18.6684L8.74868 20.1778C7.89041 19.8571 7.08614 19.4072 6.36368 18.8437L6.35337 15.825C6.35291 15.685 6.31329 15.548 6.239 15.4294C6.18087 15.3356 6.12368 15.2419 6.07025 15.1425C6.00399 15.0233 5.90683 14.9242 5.789 14.8556L3.10775 13.3284C2.969 12.4507 2.969 11.5567 3.10775 10.679L5.7815 9.15279C5.89885 9.08607 5.99602 8.9889 6.06275 8.87154C6.11712 8.77779 6.17431 8.67842 6.23243 8.58467C6.30684 8.46644 6.34647 8.32967 6.34681 8.18998L6.36087 5.16654C7.0808 4.60118 7.88286 4.14909 8.73931 3.82592L11.4374 5.33154C11.5549 5.39663 11.6876 5.42901 11.8218 5.42529C11.9352 5.42529 12.0496 5.42529 12.1631 5.42529C12.2972 5.42865 12.4299 5.39629 12.5474 5.33154L15.2512 3.82217C16.1095 4.14286 16.9137 4.59274 17.6362 5.15623L17.6465 8.17498C17.647 8.31495 17.6866 8.45199 17.7609 8.57061C17.819 8.66436 17.8762 8.75811 17.9296 8.85748C17.9959 8.97665 18.093 9.07575 18.2109 9.14436L20.8921 10.6715C21.0327 11.5499 21.0343 12.4449 20.8968 13.3237H20.9006Z" fill="#333333"/>
</svg>
