<svg width="24" height="24" viewBox="0 0 24 24" fill="none" xmlns="http://www.w3.org/2000/svg">
<path d="M21.0001 12.0004C21.0001 12.1993 20.9211 12.3901 20.7804 12.5307C20.6398 12.6714 20.449 12.7504 20.2501 12.7504H5.56041L11.0307 18.2198C11.1004 18.2895 11.1557 18.3722 11.1934 18.4632C11.2311 18.5543 11.2505 18.6519 11.2505 18.7504C11.2505 18.849 11.2311 18.9465 11.1934 19.0376C11.1557 19.1286 11.1004 19.2114 11.0307 19.281C10.961 19.3507 10.8783 19.406 10.7873 19.4437C10.6962 19.4814 10.5986 19.5008 10.5001 19.5008C10.4016 19.5008 10.304 19.4814 10.2129 19.4437C10.1219 19.406 10.0392 19.3507 9.96948 19.281L3.21948 12.531C3.14974 12.4614 3.09443 12.3787 3.05668 12.2876C3.01894 12.1966 2.99951 12.099 2.99951 12.0004C2.99951 11.9019 3.01894 11.8043 3.05668 11.7132C3.09443 11.6222 3.14974 11.5394 3.21948 11.4698L9.96948 4.71979C10.1102 4.57906 10.3011 4.5 10.5001 4.5C10.6991 4.5 10.89 4.57906 11.0307 4.71979C11.1715 4.86052 11.2505 5.05139 11.2505 5.25042C11.2505 5.44944 11.1715 5.64031 11.0307 5.78104L5.56041 11.2504H20.2501C20.449 11.2504 20.6398 11.3294 20.7804 11.4701C20.9211 11.6107 21.0001 11.8015 21.0001 12.0004Z" fill="#333333"/>
</svg>
