<svg width="128" height="22" viewBox="0 0 128 22" fill="none" xmlns="http://www.w3.org/2000/svg">
<path d="M0 21.5796L2.98442 0.373673H7.46106L4.94295 17.9363H11.2382L10.4455 21.5796H0Z" fill="#535353"/>
<path d="M20.4711 18.4501C21.7457 18.4501 22.7405 17.8118 23.4555 16.535C24.1705 15.2272 24.6835 13.39 24.9944 11.0234C25.3363 8.62562 25.3208 6.78839 24.9477 5.51168C24.5747 4.20382 23.7664 3.54989 22.5229 3.54989C21.3105 3.54989 20.3467 4.20382 19.6317 5.51168C18.9167 6.78839 18.3882 8.62562 18.0462 11.0234C17.7043 13.39 17.7043 15.2272 18.0462 16.535C18.3882 17.8118 19.1965 18.4501 20.4711 18.4501ZM23.0358 0C25.6472 0 27.528 0.887473 28.6782 2.66242C29.8285 4.43737 30.1394 7.22435 29.6109 11.0234C29.0824 14.7912 27.9943 17.5626 26.3467 19.3376C24.699 21.1125 22.5695 22 19.9581 22C14.58 22 12.4038 18.3411 13.4297 11.0234C13.9582 7.22435 15.0463 4.43737 16.6939 2.66242C18.3416 0.887473 20.4555 0 23.0358 0Z" fill="#535353"/>
<path d="M39.3924 18.4501C40.667 18.4501 41.6618 17.8118 42.3768 16.535C43.0918 15.2272 43.6048 13.39 43.9157 11.0234C44.2576 8.62562 44.2421 6.78839 43.869 5.51168C43.496 4.20382 42.6877 3.54989 41.4442 3.54989C40.2318 3.54989 39.2681 4.20382 38.553 5.51168C37.838 6.78839 37.3095 8.62562 36.9676 11.0234C36.6256 13.39 36.6256 15.2272 36.9676 16.535C37.3095 17.8118 38.1178 18.4501 39.3924 18.4501ZM41.9571 0C44.5685 0 46.4493 0.887473 47.5996 2.66242C48.7498 4.43737 49.0607 7.22435 48.5322 11.0234C48.0037 14.7912 46.9156 17.5626 45.268 19.3376C43.6203 21.1125 41.4908 22 38.8795 22C33.5013 22 31.3251 18.3411 32.351 11.0234C32.8795 7.22435 33.9676 4.43737 35.6152 2.66242C37.2629 0.887473 39.3769 0 41.9571 0Z" fill="#535353"/>
<path d="M53.464 0.373673H57.9407L56.635 9.66879L63.0701 0.373673H68.0597L60.7386 9.99576C61.5468 11.9575 62.3707 13.8882 63.21 15.7877C64.0805 17.6872 64.9354 19.6178 65.7748 21.5796H60.4121L56.4018 11.2569L54.9562 21.5796H50.4796L53.464 0.373673Z" fill="#535353"/>
<path d="M86.0458 8.08068L81.0096 19.8047H77.9319C77.8697 19.3064 77.6676 18.0453 77.3257 16.0212C76.9837 13.966 76.7505 12.5492 76.6262 11.7707C76.3775 9.84006 76.2065 8.61005 76.1132 8.08068L73.362 21.5796H69.0252L73.9682 0.373673H78.3516C78.3826 0.685067 78.4604 1.1833 78.5847 1.86837C78.7091 2.52229 78.8334 3.26964 78.9578 4.1104C79.1132 4.92003 79.2686 5.8075 79.4241 6.77282C79.5795 7.73815 79.7194 8.67233 79.8438 9.57537C79.9681 10.4473 80.0769 11.2569 80.1702 12.0042C80.2635 12.7516 80.3412 13.3432 80.4034 13.7792C80.5277 13.3744 80.7453 12.7983 81.0562 12.051C81.3982 11.3036 81.7557 10.4784 82.1287 9.57537C82.5018 8.67233 82.9059 7.75372 83.3411 6.81953C83.7764 5.85421 84.1805 4.95117 84.5536 4.1104C84.9577 3.26964 85.2997 2.52229 85.5795 1.86837C85.8903 1.1833 86.1235 0.685067 86.2789 0.373673H90.6623L89.6364 21.5796H85.1131C85.1442 21.2371 85.1753 20.7233 85.2064 20.0382C85.2375 19.3532 85.2841 18.5902 85.3463 17.7495C85.4396 16.8776 85.5017 15.9745 85.5328 15.0403C85.595 14.1062 85.6572 13.2031 85.7194 12.3312C85.7815 11.4593 85.8437 10.6497 85.9059 9.90234C85.968 9.12385 86.0147 8.51663 86.0458 8.08068Z" fill="#535353"/>
<path d="M102.739 4.53079C102.522 5.06016 102.273 5.72965 101.993 6.53928C101.714 7.3489 101.403 8.22081 101.061 9.15499C100.719 10.058 100.361 11.0078 99.9882 12.0042C99.6462 12.9696 99.2887 13.9193 98.9156 14.8535H103.486C103.423 13.9193 103.346 12.9696 103.252 12.0042C103.159 11.0078 103.081 10.058 103.019 9.15499C102.957 8.22081 102.895 7.3489 102.833 6.53928C102.771 5.72965 102.739 5.06016 102.739 4.53079ZM100.734 0.373673H106.097L108.895 21.5796H104.185L103.765 17.8896H97.8431L96.3509 21.5796H91.8743L100.734 0.373673Z" fill="#535353"/>
<path d="M117.415 0.373673L122.218 13.6858H122.264C122.326 13.4989 122.404 12.7205 122.497 11.3503L124.036 0.373673H128L125.016 21.5796H121.052L116.109 8.22081C116.078 8.43878 116.047 8.76575 116.016 9.2017C115.985 9.63765 115.922 10.1047 115.829 10.603L114.337 21.5796H110.42L113.404 0.373673H117.415Z" fill="#535353"/>
</svg>
