<svg width="50" height="10" viewBox="0 0 50 10" fill="none" xmlns="http://www.w3.org/2000/svg">
<g opacity="0.8" clip-path="url(#clip0_333_1211)">
<path d="M9.15193 4.48588L7.39412 6.00268L7.92966 8.27104C7.95921 8.39418 7.9516 8.52331 7.9078 8.64213C7.86399 8.76095 7.78595 8.86411 7.68354 8.9386C7.58113 9.01309 7.45895 9.05555 7.33241 9.06063C7.20588 9.06571 7.08068 9.03318 6.97263 8.96714L4.99998 7.75307L3.02615 8.96714C2.91811 9.0328 2.79306 9.06502 2.66675 9.05976C2.54043 9.05449 2.4185 9.01197 2.3163 8.93755C2.21411 8.86312 2.13622 8.76012 2.09244 8.64152C2.04866 8.52292 2.04095 8.39401 2.07029 8.27104L2.60779 6.00268L0.849976 4.48588C0.754389 4.40327 0.685259 4.29433 0.651219 4.17266C0.617179 4.05099 0.619737 3.92199 0.658575 3.80177C0.697413 3.68155 0.770809 3.57543 0.869596 3.49667C0.968384 3.41792 1.08818 3.37001 1.21404 3.35893L3.51873 3.17299L4.40779 1.02143C4.45591 0.904171 4.53782 0.803871 4.64309 0.733281C4.74836 0.662691 4.87225 0.625 4.999 0.625C5.12575 0.625 5.24964 0.662691 5.35491 0.733281C5.46018 0.803871 5.54209 0.904171 5.59021 1.02143L6.47888 3.17299L8.78357 3.35893C8.90967 3.3696 9.02982 3.41724 9.12897 3.49589C9.22812 3.57453 9.30185 3.68069 9.34093 3.80106C9.38001 3.92143 9.3827 4.05065 9.34866 4.17254C9.31462 4.29443 9.24537 4.40357 9.14958 4.48627L9.15193 4.48588Z" fill="#FFC633"/>
</g>
<g opacity="0.8" clip-path="url(#clip1_333_1211)">
<path d="M19.1519 4.48588L17.3941 6.00268L17.9297 8.27104C17.9592 8.39418 17.9516 8.52331 17.9078 8.64213C17.864 8.76095 17.786 8.86411 17.6835 8.9386C17.5811 9.01309 17.4589 9.05555 17.3324 9.06063C17.2059 9.06571 17.0807 9.03318 16.9726 8.96714L15 7.75307L13.0261 8.96714C12.9181 9.0328 12.7931 9.06502 12.6667 9.05976C12.5404 9.05449 12.4185 9.01197 12.3163 8.93755C12.2141 8.86312 12.1362 8.76012 12.0924 8.64152C12.0487 8.52292 12.041 8.39401 12.0703 8.27104L12.6078 6.00268L10.85 4.48588C10.7544 4.40327 10.6853 4.29433 10.6512 4.17266C10.6172 4.05099 10.6197 3.92199 10.6586 3.80177C10.6974 3.68155 10.7708 3.57543 10.8696 3.49667C10.9684 3.41792 11.0882 3.37001 11.214 3.35893L13.5187 3.17299L14.4078 1.02143C14.4559 0.904171 14.5378 0.803871 14.6431 0.733281C14.7484 0.662691 14.8722 0.625 14.999 0.625C15.1257 0.625 15.2496 0.662691 15.3549 0.733281C15.4602 0.803871 15.5421 0.904171 15.5902 1.02143L16.4789 3.17299L18.7836 3.35893C18.9097 3.3696 19.0298 3.41724 19.129 3.49589C19.2281 3.57453 19.3018 3.68069 19.3409 3.80106C19.38 3.92143 19.3827 4.05065 19.3487 4.17254C19.3146 4.29443 19.2454 4.40357 19.1496 4.48627L19.1519 4.48588Z" fill="#FFC633"/>
</g>
<g opacity="0.8" clip-path="url(#clip2_333_1211)">
<path d="M29.1519 4.48588L27.3941 6.00268L27.9297 8.27104C27.9592 8.39418 27.9516 8.52331 27.9078 8.64213C27.864 8.76095 27.786 8.86411 27.6835 8.9386C27.5811 9.01309 27.4589 9.05555 27.3324 9.06063C27.2059 9.06571 27.0807 9.03318 26.9726 8.96714L25 7.75307L23.0261 8.96714C22.9181 9.0328 22.7931 9.06502 22.6667 9.05976C22.5404 9.05449 22.4185 9.01197 22.3163 8.93755C22.2141 8.86312 22.1362 8.76012 22.0924 8.64152C22.0487 8.52292 22.041 8.39401 22.0703 8.27104L22.6078 6.00268L20.85 4.48588C20.7544 4.40327 20.6853 4.29433 20.6512 4.17266C20.6172 4.05099 20.6197 3.92199 20.6586 3.80177C20.6974 3.68155 20.7708 3.57543 20.8696 3.49667C20.9684 3.41792 21.0882 3.37001 21.214 3.35893L23.5187 3.17299L24.4078 1.02143C24.4559 0.904171 24.5378 0.803871 24.6431 0.733281C24.7484 0.662691 24.8722 0.625 24.999 0.625C25.1257 0.625 25.2496 0.662691 25.3549 0.733281C25.4602 0.803871 25.5421 0.904171 25.5902 1.02143L26.4789 3.17299L28.7836 3.35893C28.9097 3.3696 29.0298 3.41724 29.129 3.49589C29.2281 3.57453 29.3018 3.68069 29.3409 3.80106C29.38 3.92143 29.3827 4.05065 29.3487 4.17254C29.3146 4.29443 29.2454 4.40357 29.1496 4.48627L29.1519 4.48588Z" fill="#FFC633"/>
</g>
<g opacity="0.8" clip-path="url(#clip3_333_1211)">
<path d="M39.1519 4.48588L37.3941 6.00268L37.9297 8.27104C37.9592 8.39418 37.9516 8.52331 37.9078 8.64213C37.864 8.76095 37.786 8.86411 37.6835 8.9386C37.5811 9.01309 37.4589 9.05555 37.3324 9.06063C37.2059 9.06571 37.0807 9.03318 36.9726 8.96714L35 7.75307L33.0261 8.96714C32.9181 9.0328 32.7931 9.06502 32.6667 9.05976C32.5404 9.05449 32.4185 9.01197 32.3163 8.93755C32.2141 8.86312 32.1362 8.76012 32.0924 8.64152C32.0487 8.52292 32.041 8.39401 32.0703 8.27104L32.6078 6.00268L30.85 4.48588C30.7544 4.40327 30.6853 4.29433 30.6512 4.17266C30.6172 4.05099 30.6197 3.92199 30.6586 3.80177C30.6974 3.68155 30.7708 3.57543 30.8696 3.49667C30.9684 3.41792 31.0882 3.37001 31.214 3.35893L33.5187 3.17299L34.4078 1.02143C34.4559 0.904171 34.5378 0.803871 34.6431 0.733281C34.7484 0.662691 34.8722 0.625 34.999 0.625C35.1257 0.625 35.2496 0.662691 35.3549 0.733281C35.4602 0.803871 35.5421 0.904171 35.5902 1.02143L36.4789 3.17299L38.7836 3.35893C38.9097 3.3696 39.0298 3.41724 39.129 3.49589C39.2281 3.57453 39.3018 3.68069 39.3409 3.80106C39.38 3.92143 39.3827 4.05065 39.3487 4.17254C39.3146 4.29443 39.2454 4.40357 39.1496 4.48627L39.1519 4.48588Z" fill="#FFC633"/>
</g>
<g opacity="0.8" clip-path="url(#clip4_333_1211)">
<path d="M49.1519 4.48588L47.3941 6.00268L47.9297 8.27104C47.9592 8.39418 47.9516 8.52331 47.9078 8.64213C47.864 8.76095 47.786 8.86411 47.6835 8.9386C47.5811 9.01309 47.4589 9.05555 47.3324 9.06063C47.2059 9.06571 47.0807 9.03318 46.9726 8.96714L45 7.75307L43.0261 8.96714C42.9181 9.0328 42.7931 9.06502 42.6667 9.05976C42.5404 9.05449 42.4185 9.01197 42.3163 8.93755C42.2141 8.86312 42.1362 8.76012 42.0924 8.64152C42.0487 8.52292 42.041 8.39401 42.0703 8.27104L42.6078 6.00268L40.85 4.48588C40.7544 4.40327 40.6853 4.29433 40.6512 4.17266C40.6172 4.05099 40.6197 3.92199 40.6586 3.80177C40.6974 3.68155 40.7708 3.57543 40.8696 3.49667C40.9684 3.41792 41.0882 3.37001 41.214 3.35893L43.5187 3.17299L44.4078 1.02143C44.4559 0.904171 44.5378 0.803871 44.6431 0.733281C44.7484 0.662691 44.8722 0.625 44.999 0.625C45.1257 0.625 45.2496 0.662691 45.3549 0.733281C45.4602 0.803871 45.5421 0.904171 45.5902 1.02143L46.4789 3.17299L48.7836 3.35893C48.9097 3.3696 49.0298 3.41724 49.129 3.49589C49.2281 3.57453 49.3018 3.68069 49.3409 3.80106C49.38 3.92143 49.3827 4.05065 49.3487 4.17254C49.3146 4.29443 49.2454 4.40357 49.1496 4.48627L49.1519 4.48588Z" fill="#FFC633"/>
</g>
<defs>
<clipPath id="clip0_333_1211">
<rect width="10" height="10" fill="white"/>
</clipPath>
<clipPath id="clip1_333_1211">
<rect width="10" height="10" fill="white" transform="translate(10)"/>
</clipPath>
<clipPath id="clip2_333_1211">
<rect width="10" height="10" fill="white" transform="translate(20)"/>
</clipPath>
<clipPath id="clip3_333_1211">
<rect width="10" height="10" fill="white" transform="translate(30)"/>
</clipPath>
<clipPath id="clip4_333_1211">
<rect width="10" height="10" fill="white" transform="translate(40)"/>
</clipPath>
</defs>
</svg>
